<?xml version="1.0" encoding="UTF-8"?><svg id="b" xmlns="http://www.w3.org/2000/svg" xmlns:xlink="http://www.w3.org/1999/xlink" viewBox="0 0 841.89 1190.55"><defs><style>.c{letter-spacing:.34em;}.d{letter-spacing:.34em;}.e{letter-spacing:.34em;}.f{letter-spacing:.34em;}.g,.h,.i{fill:#231f20;}.j{stroke-width:1.01px;}.j,.k{fill:#fff;stroke:#231f20;stroke-miterlimit:10;}.h{font-family:Montserrat-MediumItalic, Montserrat;font-size:7.39px;}.l{letter-spacing:.32em;}.m{letter-spacing:.33em;}.n{letter-spacing:.28em;}.i{font-family:Mont-HeavyDEMO, Mont;font-size:18px;}</style><symbol id="a" viewBox="0 0 133.52 103.64"><g><g><path class="g" d="M22.93,98.24c8.7-14.05,17.37-15.91,20.6-16.27,1.97-.22,4.69-.2,9.97,.84,6.77,1.34,13.54,2.67,20.31,4.01,6.07,1.15,12.13,2.31,18.2,3.46,1.59,.32,4.52,.71,8.03-.13,3.38-.8,5.76-2.36,7.03-3.34,4.01-2.58,8.02-5.17,12.03-7.75l-11.35,12.12c-1.3,1.07-3.33,2.49-6.08,3.45-4.53,1.59-8.56,1.44-14.31,.17-3.13-.69-7.19-1.58-11.95-2.58-9.15-1.92-10.29-2.12-12.23-2.53-.93-.19-1.62-.34-1.76-.37-6.74-1.45-10.72-2.31-14.64-2.29-4.14,.02-7.28,1-9.12,1.6-7.21,2.33-12.05,6.7-14.72,9.6Z"/><path class="g" d="M31.9,97.28c3.02-2.48,8.15-5.9,14.96-6.6,3.09-.32,5.45,.03,12.87,1.48,4.86,.95,11.22,2.24,18.71,3.89,0,0,4.99,.81,15.32,2.91,1.34,.27,3.81,.59,6.76-.11,2.24-.53,4-1.49,5.92-2.81,6.51-4.47,9.82-9.57,10.06-9.38,.33,.25-6.75,9.48-7.95,10.76-.04,.04-.28,.3-.61,.67-.67,.76-1.12,1.34-1.23,1.44-.93,.91-2.53,2.22-4.82,3.1-.62,.24-1.73,.6-3.4,.84-2.73,.39-5.45,.1-8.66-.64-2.61-.6-6.02-1.37-10.04-2.22-7.04-1.5-7.98-1.65-9.95-2.06-.67-.14-1.21-.25-1.53-.32-.16-.03-.27-.06-.29-.06-.54-.12-2.79-.59-8.19-1.72-1.29-.29-3.09-.67-5.27-1-2.93-.45-5.2-.63-5.68-.67-6.39-.45-15.41,2.07-16.97,2.51Z"/></g><text class="i" transform="translate(24.05 69.63)"><tspan class="n" x="0" y="0">P</tspan><tspan class="e" x="16.67" y="0">AN</tspan></text><text class="h" transform="translate(15.07 78.87)"><tspan class="f" x="0" y="0">D</tspan><tspan class="m" x="8.6" y="0">e</tspan><tspan class="l" x="15.53" y="0">v</tspan><tspan class="f" x="22.05" y="0">elop</tspan><tspan class="c" x="48.33" y="0">m</tspan><tspan class="d" x="58.66" y="0">ent</tspan></text><path class="k" d="M20.73,52.15c-.23-4.8,.02-12.95,3.8-21.87,1.3-3.06,10.42-23.6,33.01-28.68,17.52-3.94,35.81,3.06,46.62,16.68,12.67,15.97,9.94,34.56,9.42,37.69"/><g><path class="g" d="M13.23,52.71"/><path class="g" d="M10.12,59.04"/><path class="g" d="M0,73.92l2.6-6.38,2.45-3.76,2.78-2.78,3.6-.65,1.96-.49,4.38-5.21,3.97-3.25c-.54,1.18-1.07,2.42-1.59,3.73-.86,2.19-1.57,4.29-2.14,6.27l5.03,5.83-7.57-4.8-4.52,2.7,3.89,3.73-6.03-2.3-3.41,3.01,1.67,2.46-3.09-.95-3.97,2.86Z"/><path class="g" d="M23.68,49.68c2.84-3.01,5.68-6.01,8.51-9.02,3.6-5.21,7.21-10.42,10.81-15.63,.35,.47,.98,1.31,1.79,2.36,1.53,2.01,1.84,2.38,1.72,2.84-.27,1-2.15,.67-3.37,2.05-.86,.97-.95,2.29-.91,3.18l4.37,6.25c-1.92-1.33-3.84-2.67-5.76-4l-.9,2.67-1.25,1.19,8.53,8.7-10.33-7.65c-.37,.7-.63,1.35-.83,1.89-.48,1.33-.48,1.9-1.04,2.25-.58,.36-1.35,.23-1.46,.21-.34-.06-.6-.18-.76-.28l3.61,4.14-5.27-3.3-1.46,1.82-2.29,.98-3.71-.66Z"/><path class="g" d="M41.67,27.3c8.54,7.62,17.47,15.33,26.8,23.07,6.88,5.71,13.69,11.21,20.43,16.5l9.37,4.72c-18.37-15.47-36.74-30.93-55.11-46.4l-1.49,2.11Z"/><path class="g" d="M85.41,48.03c6.85,5.34,13.7,10.68,20.54,16.02l9.6,4.5c-9.83-7.43-19.67-14.86-29.5-22.28l-.65,1.77Z"/><path class="g" d="M109.31,54.56c5.3,4.01,10.6,8.03,15.9,12.04l8.31,3.42c-7.84-5.71-15.68-11.42-23.53-17.13-.23,.56-.46,1.12-.69,1.68Z"/><line class="j" x1="86.46" y1="46.71" x2="81.06" y2="60.35"/><path class="g" d="M109.62,52.59l-4.18,10.41,1.42,1.09,4.18-10.45-1.42-1.05Z"/></g></g></symbol></defs><use width="133.52" height="103.64" transform="translate(246.95 399.09) scale(2.56)" xlink:href="#a"/></svg>