<?xml version="1.0" encoding="UTF-8"?><svg id="b" xmlns="http://www.w3.org/2000/svg" xmlns:xlink="http://www.w3.org/1999/xlink" viewBox="0 0 500 500"><defs><style>.c{fill:#231f20;}.d{fill:#fff;}.d,.e{stroke:#231f20;stroke-miterlimit:10;}.e{fill:none;stroke-width:1.01px;}</style><symbol id="a" viewBox="0 0 133.52 82.2"><g><g><path d="M35.31,20.63c0-2.64-1.99-4.57-4.67-4.57h-1.89v-3.48h-3.48v12.6h5.37c2.68,0,4.67-1.91,4.67-4.55Zm-3.57,0c0,.9-.6,1.53-1.52,1.53h-1.47v-3.06h1.47c.91,0,1.52,.63,1.52,1.53Z"/><path d="M49.6,14.63h-4.47l-.7-2.05h-3.72l4.95,12.6h3.39l5.06-12.6h-3.82l-.69,2.05Zm-2.24,6.62l-1.38-3.91h2.77l-1.39,3.91Z"/><path d="M72.66,25.19V12.59h-2.87l-5.01,6.84v-6.84h-3.37v12.6h3.04l4.84-6.61v6.61h3.37Z"/></g><g><path d="M48.43,7.14h2.19c1.7,0,2.68-.9,2.68-2.29,0-1.97-1.39-3.3-3.49-3.3h-2.5l1.12,5.6h0Zm1.41-4.91c1.65,0,2.65,1.08,2.65,2.56,0,1.01-.65,1.65-1.95,1.65h-1.46l-.84-4.21h1.6Z"/><path d="M57.26,3.42v-.05c0-.78,.43-1.21,1.34-1.21,.53,0,1.01,.19,1.31,.49l.33-.55c-.42-.39-1.06-.61-1.7-.61-1.26,0-2.03,.72-2.03,1.84,0,1.44,1.01,2.49,2.39,2.49,1.14,0,1.9-.69,1.9-1.83,0-.2-.02-.39-.06-.57h-3.48Zm.08,.56h2.73c.04,.78-.46,1.2-1.21,1.2s-1.33-.46-1.53-1.2h0Z"/><path d="M68.62,5.78l-2.69-4.24h-.78l-1.01,4.24h.77l.79-3.4,2.16,3.4h.76Z"/><path d="M71.83,3.42v-.05c0-.78,.43-1.21,1.34-1.21,.53,0,1.01,.19,1.31,.49l.33-.55c-.42-.39-1.06-.61-1.7-.61-1.26,0-2.03,.72-2.03,1.84,0,1.44,1.01,2.49,2.39,2.49,1.14,0,1.9-.69,1.9-1.83,0-.2-.02-.39-.06-.57h-3.48Zm.08,.56h2.73c.04,.78-.46,1.2-1.21,1.2s-1.33-.46-1.53-1.2h0Z"/><path d="M79.86,7.48h.77l-1.18-5.93h-.77l1.18,5.93Z"/><path d="M83.6,3.33c0,1.43,1.04,2.49,2.49,2.49,1.21,0,1.98-.71,1.98-1.82,0-1.44-1.03-2.5-2.48-2.5-1.21,0-1.99,.73-1.99,1.83Zm3.69,.63c0,.75-.46,1.19-1.26,1.19-.95,0-1.66-.74-1.66-1.79,0-.74,.46-1.19,1.26-1.19,.96,0,1.66,.74,1.66,1.79Z"/><path d="M96.23,4c0-1.46-1.02-2.5-2.4-2.5-.73,0-1.26,.27-1.54,.77l-.45-2.27h-.77l1.15,5.79h.74l-.1-.53c.38,.36,.88,.57,1.5,.57,1.08,0,1.87-.68,1.87-1.82h0Zm-.78-.05c0,.75-.46,1.19-1.26,1.19-.96,0-1.66-.74-1.66-1.79,0-.74,.46-1.19,1.26-1.19,.95,0,1.66,.74,1.66,1.79Z"/></g><path class="d" d="M20.73,30.06c-.23,4.8,.02,12.95,3.8,21.87,1.3,3.06,10.42,23.6,33.01,28.68,17.52,3.94,35.81-3.06,46.62-16.68,12.67-15.97,9.94-34.56,9.42-37.69"/><g><path class="c" d="M13.23,29.5"/><path class="c" d="M10.12,23.17"/><path class="c" d="M0,8.29l2.6,6.38,2.45,3.76,2.78,2.78,3.6,.65,1.96,.49,4.38,5.21,3.97,3.25c-.54-1.18-1.07-2.42-1.59-3.73-.86-2.19-1.57-4.29-2.14-6.27l5.03-5.83-7.57,4.8-4.52-2.7,3.89-3.73-6.03,2.3-3.41-3.01,1.67-2.46-3.09,.95L.01,8.27v.02Z"/><path class="c" d="M23.68,32.53c2.84,3.01,5.68,6.01,8.51,9.02,3.6,5.21,7.21,10.42,10.81,15.63,.35-.47,.98-1.31,1.79-2.36,1.53-2.01,1.84-2.38,1.72-2.84-.27-1-2.15-.67-3.37-2.05-.86-.97-.95-2.29-.91-3.18l4.37-6.25c-1.92,1.33-3.84,2.67-5.76,4l-.9-2.67-1.25-1.19,8.53-8.7-10.33,7.65c-.37-.7-.63-1.35-.83-1.89-.48-1.33-.48-1.9-1.04-2.25-.58-.36-1.35-.23-1.46-.21-.34,.06-.6,.18-.76,.28l3.61-4.14-5.27,3.3-1.46-1.82-2.29-.98-3.71,.66h0Z"/><path class="c" d="M41.67,54.91c8.54-7.62,17.47-15.33,26.8-23.07,6.88-5.71,13.69-11.21,20.43-16.5l9.37-4.72c-18.37,15.47-36.74,30.93-55.11,46.4l-1.49-2.11Z"/><path class="c" d="M85.41,34.18c6.85-5.34,13.7-10.68,20.54-16.02l9.6-4.5c-9.83,7.43-19.67,14.86-29.5,22.28l-.65-1.77h.01Z"/><path class="c" d="M109.31,27.65c5.3-4.01,10.6-8.03,15.9-12.04l8.31-3.42c-7.84,5.71-15.68,11.42-23.53,17.13l-.69-1.68h0Z"/><line class="e" x1="86.46" y1="35.5" x2="81.06" y2="21.86"/><path class="c" d="M109.62,29.62l-4.18-10.41,1.42-1.09,4.18,10.45-1.42,1.05Z"/></g></g></symbol></defs><use width="133.52" height="82.2" transform="translate(183.42 259.63) scale(1 -1.02)" xlink:href="#a"/><g><path class="c" d="M205.84,275.55c4.52-6.04,10.32-13.07,18.54-13.45,4.11-.15,7.87,1.34,11.66,2.4,7.18,2.25,14.58,3.79,21.9,5.42,3.57,.76,7.07,1.62,10.72,1.44,7.58-.5,14.25-5.22,19.38-10.43-5.76,7.54-15.15,13.44-25.01,13.49-5.86-.16-11.42-1.91-17.04-3.32-3.7-1-7.38-2.15-10.98-3.37-3.61-1.18-7.13-2.63-10.47-2.37-7.63,.44-14.02,4.2-18.69,10.2h0Z"/><path class="c" d="M214.52,273.77c5.06-4.69,11.66-6.04,18.13-3.34,8.77,2.64,17.89,5.17,26.91,6.7,9.2,1.25,17.96-2.2,25.09-8.25,.05-.05,.13,.03,.08,.08-2.11,2.32-4.46,4.45-7.08,6.28-9.26,6.59-17.36,6.34-27.89,3.46-6-1.88-12.22-3.13-18.03-5.58-1.49-.48-2.92-1.08-4.29-1.55-4.33-1.4-8.99-.18-12.91,2.19h0Z"/></g></svg>