<?xml version="1.0" encoding="UTF-8"?><svg id="a" xmlns="http://www.w3.org/2000/svg" viewBox="0 0 1984.3 1984.3"><defs><style>.b{fill:#fff;}</style></defs><path class="b" d="M393.6,1200.3c-17-5.6-34.7-9.6-50.7-17.3-14-6.7-23.5-5.3-33.5,6.1-7.2,8.2-16.1,14.9-25.3,23.2,6,9.5,11.9,18.6,17.8,28-1.8,.5-3,1.3-3.5,.9-25.9-15.3-45.8-3.4-64.7,14-3.7,3.4-8.3,6-15.3,7.3,11.2-26.7,21.1-54,34.1-79.7,8.7-17.3,21.5-32.7,32.9-48.7,15-21,35.4-32.2,61.4-33.9,21.1-1.3,36.6-11,50-28.4,19.4-25.3,42.4-47.9,63.5-71.3,0-17.7-.8-37.4,.1-56.9,10.2-204.1,99.4-366.7,263.1-487,98.4-72.4,211.4-100.7,333.5-94.8,241.6,11.6,474.4,190.4,525.6,462.2,13.2,70.4,15.6,140.8,6.9,211.8-.6,4.6,3.1,11.6,7,14.6,67.1,50.4,134.5,100.4,201.9,150.5,4.1,3,7.9,6.3,10.3,12.3-5.5-2.2-10.9-4.7-16.5-6.5-52.7-17.3-97.7-47.3-140.1-82.5-35-29.1-71.9-55.9-109.3-84.8-10.8,27.3-21.5,53.6-31.3,80.3-1,2.8,2.2,8.7,5.1,11.1,19.1,15.3,38.6,30,58,45,4.7,3.7,9.3,7.6,13.9,11.5-.6,1.1-1.2,2.1-1.8,3.2-4.2-1.5-8.5-2.6-12.4-4.5-26-12.3-52.4-23.7-77.6-37.6-15.4-8.5-29-20.3-42.8-31.3-62-49.2-123.9-98.6-185.8-147.8-4.4-3.5-9-6.8-15.1-11.3-10.9,28.2-21.4,55.2-31.7,82.3-4.2,11-12.9,23.6-10.4,33.1,2.6,9.7,16.2,16.6,25.2,24.4,46.9,40.4,93.8,80.7,141,120.8,3.9,3.3,9.5,4.7,14.3,7-2,2.2-4,4.4-5.9,6.5-46.2-26.6-96.3-45.7-137.7-81.4-156.8-134.9-314.5-268.5-471.6-402.9-7.3-6.2-12.9-7.6-21.4-3.9-28.6,12.3-36.8,39.6-19.3,65.2,11.3,16.5,22.4,33.1,33.6,49.6-1.2,1.5-2.4,3-3.6,4.4-8.9-6.1-17.9-12.2-26.7-18.4-9.4-6.6-18.8-13.2-28.2-19.8-8.1,15.7-15.9,30.9-24.5,47.5,26.7,28,55.2,57.8,83.7,87.7-.9,1.1-1.9,2.1-2.8,3.2-34.9-26.2-69.7-52.4-106.3-79.9-4.1,10.4-8.2,19.4-11.3,28.7-7.6,23.2-7.4,23.3-31.8,25.7,10.2,12.4,20.1,24.4,29.9,36.3-.8,1-1.6,2-2.4,3-17.4-10.9-34.8-21.8-53.6-33.6-20.2,36.9-51.8,37.4-85.8,25.6,40-47.7,82.7-94.6,120.7-145,38.1-50.3,71.6-104.1,107.6-157.3,154.7,132.9,308.5,264.9,463.4,397.9,18-46.5,35.3-91.2,53.3-138,80.2,61.7,159.4,122.6,240.1,184.7,14.4-36.2,28.2-71,42.7-107.5,14.2,10.6,27.3,20.5,44.5,33.4,1.4-36.3,4.7-69,3.7-101.6-4.3-148.2-51.6-279.9-155-388.5-78.4-82.4-173.5-137.4-284.9-160.4-229.1-47.5-440.4,45.5-569.7,246.9-66.9,103.9-102.1,217.2-98.1,340.9,.9,29-11.8,51.1-19,76.2-5.8,20.2-20.1,41.3-17,59.7,3,17.7,23.5,32.4,36.3,48.4,5.1,6.4,10.2,12.8,12.8,20.9-25.5-16.6-50.9-33.3-76.5-49.6-3-1.9-8.6-2.8-11.3-1.3-16.2,9.1-31.9,19.1-49.5,29.9,15.3,14.8,29.4,28.3,43.4,41.9,0-.1,.4-.4,.4-.4Z"/><path class="b" d="M1448.5,1420c-8.1,5.9-16.7,11.2-24.1,17.8-69.8,62.9-149.3,104-245,106.8-48.8,1.4-96.4-9-143-22.1-78.3-22-156.9-43.3-233.6-70-89.3-31-168.6-13.1-243.7,37.6-16.8,11.3-31.6,25.6-49.1,37,12.7-14.6,25-29.7,38.2-43.8,31.8-33.9,67.4-62.7,112.3-77.9,46.7-15.8,92.8-9.7,138.3,4.7,117.4,37,237.6,63,357.6,89.7,91.2,20.3,171.5-1.9,245.3-55.6,13.5-9.8,26.7-20.1,40-30.1,.2-.2,.8,.2,1.2,.4,1.8,1.8,3.7,3.7,5.6,5.5Z"/><path class="b" d="M604.6,1527.2c61.3-49.5,127.8-57.6,202.1-32.8,108.5,36.2,219,66.6,332.4,82.7,87.5,12.4,167.8-13.6,241.4-60.9,12.7-8.1,24.8-17,40.7-27.9-2.2,5.4-2.4,7.2-3.4,8.3-56.8,56-120,101.5-200.3,117.2-56.2,11-112,5.8-166.6-8.6-95.3-25-191.1-48.6-282.3-86.7-50.8-21.2-99.8-18.3-148.9,3.7-4.9,2.3-10.1,3.4-15.1,5Z"/><path class="b" d="M1089.2,1213c-8.6,0-16.8,1-24.6-.3-5.3-.9-11.8-3.6-14.9-7.7-17.3-22.8-33.7-46.3-53-73.3v80.8h-41.1v-154c10.7,0,21.2-.9,31.5,.4,4.2,.5,8.7,5,11.6,8.8,16.4,22.1,32.3,44.6,50.4,69.9v-78.4h40.3c-.2,50.6-.2,101.2-.2,153.8Z"/><path class="b" d="M807.1,1058.4c20,50.9,40.1,101.8,60.9,154.7-14.5,0-27.8,.8-40.8-.5-3.7-.4-8.7-6.6-9.6-11-2.4-11.1-8.1-15.3-19-13.7-3.3,.5-6.7,.5-10,.1-19-2.1-35.7-.8-35.6,24.6h-46.3c9-23.7,17.6-46.7,26.3-69.5,9.4-24.5,19.3-48.8,28.2-73.4,3-8.3,6.9-12.4,16.3-11.6,9.4,1,19,.3,29.6,.3Zm-20.7,50c-5.8,17.3-10.5,30.9-15.4,45.6h31.5c-5.3-14.8-10.1-28.4-16.1-45.6Z"/><path class="b" d="M563.5,1212.8h-41.8v-153.2c25.2,0,50.1-1.7,74.7,.4,27.6,2.4,46.6,26.7,46.4,54.9-.2,27.8-18.7,50.5-45.4,54.7-10.7,1.7-21.8,1.5-33.8,2.2-.1,13.7-.1,26.8-.1,41Zm.4-77c11.9-4.1,22.9-6.1,31.5-11.8,3.1-2.1,2.9-14.5-.2-19.6-7.1-11.7-19.6-8.7-32.3-7.9,0,8.3-.1,15.9,0,23.4,.2,3.8,.6,7.5,1,15.9Z"/><path class="b" d="M785.1,1350.5c4.9-25.6,9.3-47.9,13.8-71.3h24.7c19,.1,30.5,7.1,33.7,20.5,4.3,18.1-3.7,38.9-20.8,44-15.6,4.7-32.6,4.5-51.4,6.8Zm12.8-11.6c9,0,17.2,.9,25.1-.2,15.3-2.1,26.2-16.6,24.7-31.7-1.3-12.8-9.1-18-27.5-18-4.1,0-8.2,.5-12.7,.8-3.3,16.5-6.3,32.3-9.6,49.1Z"/><path class="b" d="M1326.3,1344.3q-6.7,20.9-15.4,22.2c4.2-22.4,8.2-44.3,12.5-66.1,.3-1.5,2.2-3.9,3.4-3.9,11.4,0,23.3-1.3,34.2,1.3,11.2,2.7,15,16.1,11.1,30.3-3.9,14.3-17,23.1-31.6,20.6-4.7-.7-9.1-2.7-14.2-4.4Zm12.1-4.7c16.4,.2,24.8-8.4,24.8-20.1,0-9.1-4.7-14.2-13.9-14.7-11.2-.6-22,9.6-20,21.1,1,5.8,7.1,10.8,9.1,13.7Z"/><path class="b" d="M1122,1325.6h-39.5c1.3,13.7,7.5,16.8,22.9,12.7,2.9-.8,6.3,.3,9.5,.5-2,2.6-3.6,6.7-6.2,7.7-11.8,4.4-23.7,5.2-33-5.3-7.6-8.6-6.1-25.9,2.4-35.9,8.1-9.6,23.1-12.7,33.8-7.1,10.7,5.6,11.8,15,10.1,27.4Zm-39.9-7.6h30.2c.8-1.3,1.5-2.5,2.3-3.8-4.5-3.3-8.7-8.3-13.7-9.4-9-2-15.2,2.9-18.8,13.2Z"/><path class="b" d="M946.7,1326.1h-39.8c3,13.4,8.8,16.1,23.2,12.3,3-.8,6.4-.1,9.7-.1-2.3,2.9-4,7.5-7,8.5-11.8,4.1-23.8,4.5-32.7-6.4-6.8-8.3-5.1-25.4,2.7-34.8,8.1-9.7,22.9-13.1,33.8-7.8,9.4,4.7,12.4,12.5,10.1,28.3Zm-9.8-8.1c.8-1.2,1.6-2.4,2.4-3.6-4.4-3.3-8.4-8.7-13.2-9.6-9.2-1.7-16.2,2.5-18,13.2h28.8Z"/><path class="b" d="M1221.5,1326c.1-18.2,11.5-30.3,29-30.6,15.6-.2,25.3,8.6,25,23.1-.3,17.5-12.8,30.6-29.5,30.9-15.3,.3-24.6-8.5-24.5-23.4Zm23.9,13.7c11.1,.1,19.7-8.6,19.8-20.1,.1-9.9-5-15-15-14.9-10.5,.1-19.8,9.9-19.2,20.8,.4,9,5,14.3,14.4,14.2Z"/><path class="b" d="M992,1295.3c14.7,7.8,6.8,26.7,15.6,37.4,13-10.1,13.7-31.7,34.1-35.1-9.6,15.3-18.9,30.8-28.9,45.9-1.7,2.5-6.1,5-8.9,4.5-2.4-.4-5.4-4.5-6.1-7.4-3.7-14.2-6.7-28.6-9.9-43,1.3-.7,2.7-1.5,4.1-2.3Z"/><path class="b" d="M1161.9,1346.2c6.5-23.6,6.9-49.2,16.5-71.9,2.5,.7,5.1,1.5,7.6,2.2-4.3,22.4-8.3,44.9-13.1,67.1-.5,2.4-5.4,3.8-8.2,5.7-1-1-1.9-2-2.8-3.1Z"/><path class="b" d="M393.2,1200.6c.3,.6,.5,1.3,.8,1.9-.2-.7-.3-1.4-.5-2.2,.1,0-.3,.3-.3,.3Z"/><path class="b" d="M772.8,964.9c.7,.8,1.4,1.6,2.1,2.4-.5,.1-.9,.2-1.4,.4-.2-1-.3-2-.5-3.1l-.2,.3Z"/><path class="b" d="M1424.9,1484.5c1.2-.2,2.4-.4,3.5-.6-.6,.8-1.1,1.6-1.7,2.3-.5-.5-1.1-1.1-1.8-1.7Z"/><path class="b" d="M1426.8,1486.3c-.9,1-1.8,2-2.7,3.1-.9-.5-1.9-1.1-2.8-1.6,1.2-1.1,2.4-2.1,3.7-3.2,.6,.5,1.2,1.1,1.8,1.7Z"/><path class="b" d="M1424,1489.4c-1.3,.6-2.7,1.2-4,1.9,.4-1.2,.8-2.3,1.2-3.5,1,.5,1.9,1,2.8,1.6Z"/><path class="b" d="M773.1,964.6c-1.2-.1-2.3-.1-3.5-.2,.3-.7,.5-1.5,.8-2.2,.8,.9,1.6,1.8,2.4,2.7l.3-.3Z"/></svg>